<svg width="48" height="48" viewBox="0 0 48 48" fill="none" xmlns="http://www.w3.org/2000/svg">
<g clip-path="url(#clip0_471_460)">
<path d="M16.3586 47.5085L12.1456 40.339L4.0481 38.511L4.8761 30.2415L-0.608398 24L4.8761 17.7585L4.0481 9.48896L12.1456 7.66095L16.3586 0.491455L24.0001 3.74796L31.6416 0.491455L35.8546 7.66095L43.9521 9.48896L43.1241 17.7585L48.6086 24L43.1241 30.2415L43.9521 38.511L35.8546 40.339L31.6416 47.5085L24.0001 44.252L16.3586 47.5085ZM18.9696 39.663L24.0001 37.448L29.2021 39.663L31.9176 34.9325L37.2916 33.6175L36.8481 28.1305L40.4066 24L36.8481 19.7695L37.2916 14.211L31.9176 13.0675L29.0306 8.33695L24.0001 10.552L18.7981 8.33695L16.0826 13.0675L10.7086 14.211L11.1521 19.7695L7.5936 24L11.1521 28.1305L10.7086 33.789L16.0826 34.9325L18.9696 39.663ZM24.0001 35.4785C24.8884 35.4785 25.6356 35.1755 26.2416 34.5695C26.8473 33.9638 27.1501 33.2168 27.1501 32.3285C27.1501 31.4398 26.8473 30.688 26.2416 30.073C25.6356 29.4576 24.8884 29.15 24.0001 29.15C23.1118 29.15 22.3646 29.4576 21.7586 30.073C21.1529 30.688 20.8501 31.4398 20.8501 32.3285C20.8501 33.2168 21.1529 33.9638 21.7586 34.5695C22.3646 35.1755 23.1118 35.4785 24.0001 35.4785ZM20.9481 25.985H27.0956V13.148H20.9481V25.985Z" fill="#A74C4C"/>
</g>
<defs>
<clipPath id="clip0_471_460">
<rect width="48" height="48" fill="white"/>
</clipPath>
</defs>
</svg>
