  <svg width="241" height="241" viewBox="0 0 241 241" fill="none" xmlns="http://www.w3.org/2000/svg">
<g filter="url(#filter0_d_753_736)">
<path d="M191.029 118.652H124.211C123.044 118.651 121.896 118.954 120.882 119.531C119.868 120.109 119.022 120.941 118.427 121.946L64.9858 154.642L80.0483 181.754L82.0567 184.767C82.0567 184.767 82.8148 185.943 83.504 186.955C84.065 187.779 84.9404 188.848 85.9663 189.448C86.9923 190.048 88.1584 190.366 89.3467 190.37H157.931C159.123 190.37 160.294 190.053 161.324 189.454C162.354 188.854 163.207 187.992 163.796 186.956L196.893 128.714C197.471 127.688 197.771 126.529 197.762 125.352C197.754 124.174 197.438 123.02 196.845 122.002C196.252 120.985 195.403 120.141 194.383 119.553C193.362 118.965 192.206 118.655 191.029 118.652Z" fill="#008091"/>
</g>
<g filter="url(#filter1_d_753_736)">
<path d="M171.768 86.0972H104.931C103.767 86.0993 102.623 86.4016 101.61 86.9751C100.596 87.5485 99.7482 88.3737 99.147 89.3707L46.9106 118.492L63.9815 153.637C63.9815 153.637 65.6563 156.377 66.6831 156.977C67.7099 157.577 68.8773 157.893 70.0664 157.895H138.671C139.86 157.891 141.026 157.573 142.052 156.974C143.078 156.374 143.928 155.514 144.515 154.481L177.613 96.2392C178.217 95.2139 178.538 94.0468 178.543 92.8569C178.549 91.6669 178.239 90.4968 177.645 89.4658C177.051 88.4348 176.194 87.5798 175.161 86.988C174.129 86.3962 172.958 86.0889 171.768 86.0972Z" fill="#00B380"/>
<mask id="path-4-inside-1_753_736" fill="white">
<path fill-rule="evenodd" clip-rule="evenodd" d="M96.3152 157.855H77.6377V176.533C77.6377 166.217 85.9999 157.855 96.3152 157.855Z"/>
</mask>
<path fill-rule="evenodd" clip-rule="evenodd" d="M96.3152 157.855H77.6377V176.533C77.6377 166.217 85.9999 157.855 96.3152 157.855Z" fill="#00B380"/>
<path d="M77.6377 157.855V156.855H76.6377V157.855H77.6377ZM77.6377 158.855H96.3152V156.855H77.6377V158.855ZM78.6377 176.533V157.855H76.6377V176.533H78.6377ZM78.6377 176.533C78.6377 166.77 86.5522 158.855 96.3152 158.855V156.855C85.4476 156.855 76.6377 165.665 76.6377 176.533H78.6377Z" fill="#00B380" mask="url(#path-4-inside-1_753_736)"/>
<path d="M77.2056 153.679L77.2056 175.795L64.826 154.109L77.2056 153.679Z" fill="#00B380" stroke="#00B380"/>
</g>
<g filter="url(#filter2_d_753_736)">
<path d="M154.719 50.2083H87.8819C86.7177 50.2104 85.5737 50.5129 84.5604 51.0863C83.5472 51.6598 82.6991 52.4849 82.0979 53.4819L48.1997 109.454C48.1997 109.454 46.9255 113.286 46.9112 114.475C46.9105 115.777 46.9112 117.488 47.9153 119.496C48.5652 120.796 48.9195 121.504 49.7576 121.906C49.7576 121.906 51.8281 121.904 53.0173 121.906H121.602C122.792 121.909 123.962 121.597 124.993 121.001C126.023 120.405 126.876 119.546 127.466 118.512L160.564 60.2701C161.147 59.2468 161.452 58.0882 161.448 56.9102C161.443 55.7321 161.129 54.5759 160.538 53.5571C159.946 52.5384 159.097 51.6929 158.076 51.1053C157.055 50.5176 155.898 50.2083 154.719 50.2083Z" fill="#68E571"/>
<path fill-rule="evenodd" clip-rule="evenodd" d="M76.634 121.906H57.9565V140.583C57.9565 130.268 66.3187 121.906 76.634 121.906Z" fill="#68E571"/>
<path d="M57.4565 117.082V139.061L47.6482 118.866L57.4565 117.082Z" fill="#68E571" stroke="#68E571"/>
<path d="M48.6697 108.757C47.2106 110.462 46.3682 112.608 46.2781 114.851C46.188 117.093 46.8556 119.3 48.1732 121.117L56.2596 115.252L48.6697 108.757Z" fill="#68E571"/>
</g>
<defs>
<filter id="filter0_d_753_736" x="60.9858" y="118.652" width="140.777" height="79.7176" filterUnits="userSpaceOnUse" color-interpolation-filters="sRGB">
<feFlood flood-opacity="0" result="BackgroundImageFix"/>
<feColorMatrix in="SourceAlpha" type="matrix" values="0 0 0 0 0 0 0 0 0 0 0 0 0 0 0 0 0 0 127 0" result="hardAlpha"/>
<feOffset dy="4"/>
<feGaussianBlur stdDeviation="2"/>
<feComposite in2="hardAlpha" operator="out"/>
<feColorMatrix type="matrix" values="0 0 0 0 0 0 0 0 0 0 0 0 0 0 0 0 0 0 0.25 0"/>
<feBlend mode="normal" in2="BackgroundImageFix" result="effect1_dropShadow_753_736"/>
<feBlend mode="normal" in="SourceGraphic" in2="effect1_dropShadow_753_736" result="shape"/>
</filter>
<filter id="filter1_d_753_736" x="42.9106" y="86.097" width="139.633" height="99.5827" filterUnits="userSpaceOnUse" color-interpolation-filters="sRGB">
<feFlood flood-opacity="0" result="BackgroundImageFix"/>
<feColorMatrix in="SourceAlpha" type="matrix" values="0 0 0 0 0 0 0 0 0 0 0 0 0 0 0 0 0 0 127 0" result="hardAlpha"/>
<feOffset dy="4"/>
<feGaussianBlur stdDeviation="2"/>
<feComposite in2="hardAlpha" operator="out"/>
<feColorMatrix type="matrix" values="0 0 0 0 0 0 0 0 0 0 0 0 0 0 0 0 0 0 0.25 0"/>
<feBlend mode="normal" in2="BackgroundImageFix" result="effect1_dropShadow_753_736"/>
<feBlend mode="normal" in="SourceGraphic" in2="effect1_dropShadow_753_736" result="shape"/>
</filter>
<filter id="filter2_d_753_736" x="42.27" y="50.2083" width="123.178" height="99.0261" filterUnits="userSpaceOnUse" color-interpolation-filters="sRGB">
<feFlood flood-opacity="0" result="BackgroundImageFix"/>
<feColorMatrix in="SourceAlpha" type="matrix" values="0 0 0 0 0 0 0 0 0 0 0 0 0 0 0 0 0 0 127 0" result="hardAlpha"/>
<feOffset dy="4"/>
<feGaussianBlur stdDeviation="2"/>
<feComposite in2="hardAlpha" operator="out"/>
<feColorMatrix type="matrix" values="0 0 0 0 0 0 0 0 0 0 0 0 0 0 0 0 0 0 0.25 0"/>
<feBlend mode="normal" in2="BackgroundImageFix" result="effect1_dropShadow_753_736"/>
<feBlend mode="normal" in="SourceGraphic" in2="effect1_dropShadow_753_736" result="shape"/>
</filter>
</defs>
</svg>
