<svg width="48" height="48" viewBox="0 0 48 48" fill="none" xmlns="http://www.w3.org/2000/svg">
<g clip-path="url(#clip0_471_451)">
<path d="M16.3586 47.5085L12.1456 40.339L4.0481 38.511L4.8761 30.2415L-0.608398 24L4.8761 17.7585L4.0481 9.48896L12.1456 7.66095L16.3586 0.491455L24.0001 3.74796L31.6416 0.491455L35.8546 7.66095L43.9521 9.48896L43.1241 17.7585L48.6086 24L43.1241 30.2415L43.9521 38.511L35.8546 40.339L31.6416 47.5085L24.0001 44.252L16.3586 47.5085ZM18.9696 39.663L24.0001 37.448L29.2021 39.663L31.9176 34.9325L37.2916 33.6175L36.8481 28.1305L40.4066 24L36.8481 19.7695L37.2916 14.211L31.9176 13.0675L29.0306 8.33695L24.0001 10.552L18.7981 8.33695L16.0826 13.0675L10.7086 14.211L11.1521 19.7695L7.5936 24L11.1521 28.1305L10.7086 33.789L16.0826 34.9325L18.9696 39.663ZM21.9001 32.0715L34.2151 19.7285L30.4651 16.0065L21.9001 24.5715L17.6066 20.25L13.8286 24L21.9001 32.0715Z" fill="#4CA771"/>
</g>
<defs>
<clipPath id="clip0_471_451">
<rect width="48" height="48" fill="white"/>
</clipPath>
</defs>
</svg>
