<svg width="32" height="32" viewBox="0 0 32 32" fill="none" xmlns="http://www.w3.org/2000/svg">
<path d="M16.0027 30.1082C14.0331 30.1082 12.1848 29.7443 10.4577 29.0166C8.73033 28.2888 7.23466 27.293 5.97066 26.0292C4.70688 24.7652 3.71111 23.2696 2.98333 21.5422C2.25555 19.8151 1.89166 17.9668 1.89166 15.9972C1.89166 14.0221 2.25577 12.1742 2.984 10.4536C3.71222 8.7329 4.71022 7.23801 5.978 5.9689C7.24577 4.70001 8.74177 3.70234 10.466 2.9759C12.1902 2.24945 14.0349 1.88623 16 1.88623C17.6349 1.88623 19.1691 2.13012 20.6027 2.6179C22.036 3.10545 23.3424 3.79578 24.522 4.6889L22.37 6.84323C21.4707 6.23301 20.4861 5.75112 19.4163 5.39756C18.3463 5.04379 17.2076 4.8669 16 4.8669C12.8604 4.8669 10.2201 5.93601 8.079 8.07423C5.93766 10.2122 4.867 12.8532 4.867 15.9972C4.867 19.141 5.93733 21.7829 8.078 23.9229C10.2187 26.0629 12.8583 27.1329 15.997 27.1329C19.1357 27.1329 21.7763 26.0636 23.919 23.9249C26.0617 21.7862 27.133 19.1446 27.133 15.9999C27.133 15.4735 27.0982 14.9655 27.0287 14.4759C26.9591 13.9863 26.8519 13.5019 26.707 13.0226L29.0943 10.6379C29.4214 11.4732 29.6731 12.3353 29.8493 13.2242C30.0255 14.1131 30.1137 15.0373 30.1137 15.9969C30.1137 17.9747 29.7504 19.823 29.024 21.5419C28.2975 23.2608 27.2999 24.7541 26.031 26.0219C24.7619 27.2897 23.267 28.2877 21.5463 29.0159C19.8257 29.7441 17.9778 30.1082 16.0027 30.1082ZM14.048 22.5706L8.04533 16.5456L10.158 14.4249L14.048 18.3152L27.993 4.36223L30.1357 6.4829L14.048 22.5706Z" fill="url(#paint0_linear_364_669)"/>
<defs>
<linearGradient id="paint0_linear_364_669" x1="4.33333" y1="29.9998" x2="30" y2="4.99984" gradientUnits="userSpaceOnUse">
<stop stop-color="#4CA771"/>
<stop offset="1" stop-color="#C0E6BA"/>
</linearGradient>
</defs>
</svg>
